<svg width="120" height="100" viewBox="0 0 120 100" fill="none" xmlns="http://www.w3.org/2000/svg">
<g id="Triangles" clip-path="url(#clip0_1_2)">
<g id="darkGroup">
<path id="dark1" opacity="0.7" d="M65 48.268C66.3333 49.0378 66.3333 50.9623 65 51.7321L30.5 71.6506C29.1667 72.4204 27.5 71.4582 27.5 69.9186V30.0814C27.5 28.5418 29.1667 27.5796 30.5 28.3494L65 48.268Z" fill="#292524"/>
<path id="dark2" opacity="0.7" d="M48 48.268C49.3333 49.0378 49.3333 50.9623 48 51.7321L13.5 71.6506C12.1667 72.4204 10.5 71.4582 10.5 69.9186V30.0814C10.5 28.5418 12.1667 27.5796 13.5 28.3494L48 48.268Z" fill="#292524"/>
</g>
<g id="lightGroup">
<path id="light1" opacity="0.7" d="M48 48.268C49.3333 49.0378 49.3333 50.9623 48 51.7321L13.5 71.6506C12.1667 72.4204 10.5 71.4582 10.5 69.9186V30.0814C10.5 28.5418 12.1667 27.5796 13.5 28.3494L48 48.268Z" fill="#A8A29E"/>
</g>
</g>
<defs>
<clipPath id="clip0_1_2">
<rect width="120" height="100" fill="white"/>
</clipPath>
</defs>
</svg>
